# xmcd
#
# Track frame offsets:
#	150
#	16550
#	26602
#	37197
#	46787
#	57707
#	70382
#	83687
#	98112
#	111880
#	122400
#	137332
#	148117
#	160652
#	173040
#	185452
#	198150
#	209520
#	218827
#	231215
#
# Disc length: 3322 seconds
#
# Revision: 2
# Processed by: cddbd v1.5.2PL0 Copyright (c) Steve Scherf et al.
# Submitted via: audiograbber 1.83.01
#
DISCID=120cf814
DTITLE=Various Artist - Memory Train
DYEAR=1999
DGENRE=Country
TTITLE0=Rex Allen, Jr. - Memory Train
TTITLE1=Waylon Jennings - White Lightning
TTITLE2=Don Gibson - Oh, Lonesome Me
TTITLE3=Donna Fargo - Stick And Stones
TTITLE4=Dolly Parton - It Wasn't God Who Made Honky Tonk Angels
TTITLE5=Lee Hazelwood - These Boots Are Made For Walking
TTITLE6=Patti Page - Tennessee Waltz
TTITLE7=George Jones - A Good Year For The Roses
TTITLE8=Willie Nelson - Home Is Where You're Happy
TTITLE9=Johnny Cash - You Win Again
TTITLE10=Frankie Laine - Sixteen Tons
TTITLE11=Roger Miller - King Of The Road
TTITLE12=Frankie Laine - High Noon (Do Not Forsake Me)
TTITLE13=Johnny Cash - I Walk The Line
TTITLE14=Lynn Anderson - Stand By Your Man
TTITLE15=Willie Nelson - Any Ol' Arms Won't Do
TTITLE16=Johnny Roman - Treat Me Like A Man
TTITLE17=The Bellamy Brothers - Let Your Love Flow
TTITLE18=Ray Price - Let It Rain, Let Her Cry
TTITLE19=Ricky Nelson - Garden Party
EXTD=
EXTT0=
EXTT1=
EXTT2=
EXTT3=
EXTT4=
EXTT5=
EXTT6=
EXTT7=
EXTT8=
EXTT9=
EXTT10=
EXTT11=
EXTT12=
EXTT13=
EXTT14=
EXTT15=
EXTT16=
EXTT17=
EXTT18=
EXTT19=
PLAYORDER=
